<svg width="57" height="15" viewBox="0 0 57 15" fill="none" xmlns="http://www.w3.org/2000/svg">
<path d="M4.6978 0L5.75252 5.18237H9.16568L6.40438 8.38525L7.4591 13.5676L4.6978 10.3647L1.9365 13.5676L2.99123 8.38525L0.229927 5.18237H3.64308L4.6978 0Z" fill="#EB9B00"/>
<path d="M16.5987 0L17.6534 5.18237H21.0666L18.3053 8.38525L19.36 13.5676L16.5987 10.3647L13.8374 13.5676L14.8921 8.38525L12.1308 5.18237H15.544L16.5987 0Z" fill="#EB9B00"/>
<path d="M28.5 0L29.5548 5.18237H32.9679L30.2066 8.38525L31.2613 13.5676L28.5 10.3647L25.7387 13.5676L26.7935 8.38525L24.0322 5.18237H27.4453L28.5 0Z" fill="#EB9B00"/>
<path d="M40.4009 0L41.4556 5.18237H44.8688L42.1075 8.38525L43.1622 13.5676L40.4009 10.3647L37.6396 13.5676L38.6944 8.38525L35.9331 5.18237H39.3462L40.4009 0Z" fill="#EB9B00"/>
<path d="M52.3023 0L53.357 5.18237H56.7702L54.0089 8.38525L55.0636 13.5676L52.3023 10.3647L49.541 13.5676L50.5957 8.38525L47.8344 5.18237H51.2476L52.3023 0Z" fill="#EB9B00"/>
</svg>
